<svg xmlns="http://www.w3.org/2000/svg" width="144" height="90" viewBox="0 0 144 90">
  <g fill="none" fill-rule="evenodd">
    <path fill="#49514E" d="M123.741006,89.1759739 C122.750261,88.1199193 122.753553,86.5228266 123.747589,85.5405007 C124.609964,84.6904527 126.124058,84.6362405 126.924992,85.426655 C127.605237,86.0999711 127.595362,87.2460179 126.901951,87.9312607 C126.323743,88.5015735 125.259488,88.5286797 124.712001,87.98981 C124.242412,87.5246689 124.242412,86.7689502 124.712001,86.3038091 C125.093816,85.9264919 125.761992,85.9264919 126.143807,86.3048934 C126.235969,86.3959699 126.235969,86.5434273 126.143807,86.6345038 C126.051645,86.7255804 125.90243,86.7234119 125.810267,86.6334196 C125.605097,86.43175 125.250711,86.43175 125.04554,86.6334196 C124.759179,86.9174917 124.759179,87.3772116 125.04554,87.6601995 C125.415286,88.02559 126.170139,87.9952312 126.568412,87.600566 C127.072012,87.1028976 127.082984,86.2420072 126.591452,85.7573497 C125.974843,85.1480041 124.755887,85.2033006 124.081128,85.8711954 C123.267028,86.6746209 123.269223,87.9876415 124.086614,88.8582901 C125.034569,89.8698906 126.650699,89.6476204 127.665581,88.8507004 C128.18564,88.4419401 128.490653,87.817415 128.524665,87.0931394 C128.568552,86.1455094 128.132975,85.1642677 127.327653,84.4020436 C127.233296,84.3120512 127.231102,84.1656782 127.32107,84.0724331 C127.409941,83.9791881 127.560253,83.9748511 127.65461,84.0659277 C128.55758,84.9213969 129.046918,86.0327479 128.996448,87.1148243 C128.955853,87.9746305 128.588301,88.7216753 127.958526,89.2160909 C127.340819,89.7029169 126.525622,89.9989158 125.725785,90 C124.997265,90 124.28191,89.7527922 123.741006,89.1759739 Z" opacity=".191"/>
    <path fill="#CCCBCB" d="M2.35519471,5.5869192 C2.4992234,5.50648756 2.66008661,5.37835809 2.7676405,5.2315236 C2.91447494,5.03231501 2.92195695,4.71526473 2.92195695,4.71526473 L2.74519447,3.93620016 C2.65166935,3.52562472 2.91166918,3.11224352 3.32317971,3.01871836 C3.73469025,2.92612845 4.14713603,3.18612839 4.24066115,3.59763909 L4.40994162,4.34396985 C4.43425815,4.38792667 4.56986957,4.62735108 4.76720758,4.73303451 C4.98605636,4.8490057 5.27972524,4.89483303 5.45368196,4.87425749 C5.46303448,4.87332224 5.46864598,4.87706325 5.47519274,4.87893375 L6.06346575,4.74519278 C6.47497628,4.65166762 6.88742207,4.91166756 6.98094719,5.32317825 C7.07447231,5.73468895 6.81447247,6.14713489 6.40296194,6.24066005 L5.7922429,6.37907729 C5.62670344,6.43799813 5.38353812,6.60353766 5.23857419,6.80087575 C5.09828651,6.99073182 5.08519299,7.28440081 5.08425774,7.31152311 L5.25447346,8.06346538 C5.34799858,8.47497607 5.08799874,8.88742202 4.67648821,8.98094718 C4.26591293,9.07447234 3.8525319,8.8144724 3.75900678,8.4029617 L3.57943854,7.60893311 C3.56634503,7.58461657 3.4269926,7.32555188 3.21936683,7.2151922 C3.06879139,7.13476056 2.88267639,7.08986849 2.72461894,7.07583971 L1.93620217,7.25447276 C1.52562689,7.34799792 1.11224586,7.08799798 1.01872074,6.67648729 C0.926130868,6.26591184 1.1861307,5.85253065 1.59670598,5.75994074 L2.35519471,5.5869192 Z" transform="rotate(15 4 6)"/>
    <path fill="#CCCBCB" d="M127.677597,20.2934596 C127.749612,20.2532438 127.830043,20.189179 127.88382,20.1157618 C127.957237,20.0161575 127.960978,19.8576324 127.960978,19.8576324 L127.872597,19.4681001 C127.825835,19.2628124 127.955835,19.0561218 128.16159,19.0093592 C128.367345,18.9630642 128.573568,19.0930642 128.620331,19.2988195 L128.704971,19.6719849 C128.717129,19.6939633 128.784935,19.8136755 128.883604,19.8665173 C128.993028,19.9245029 129.139863,19.9474165 129.226841,19.9371287 C129.231517,19.9366611 129.234323,19.9385316 129.237596,19.9394669 L129.531733,19.8725964 C129.737488,19.8258338 129.943711,19.9558338 129.990474,20.1615891 C130.037236,20.3673445 129.907236,20.5735674 129.701481,20.62033 L129.396121,20.6895386 C129.313352,20.7189991 129.191769,20.8017688 129.119287,20.9004379 C129.049143,20.9953659 129.042596,21.1422004 129.042129,21.1557616 L129.127237,21.5317327 C129.173999,21.737488 129.043999,21.943711 128.838244,21.9904736 C128.632956,22.0372362 128.426266,21.9072362 128.379503,21.7014809 L128.289719,21.3044666 C128.283173,21.2923083 128.213496,21.1627759 128.109683,21.1075961 C128.034396,21.0673803 127.941338,21.0449342 127.862309,21.0379199 L127.468101,21.1272364 C127.262813,21.173999 127.056123,21.043999 127.00936,20.8382436 C126.963065,20.6329559 127.093065,20.4262653 127.298353,20.3799704 L127.677597,20.2934596 Z" transform="rotate(15 128.5 20.5)"/>
    <g transform="translate(4 9)">
      <path fill="#D0D2D3" d="M109.928571,75.8240741 C109.928571,78.6832054 85.4642286,81 55.2857143,81 C25.1072,81 0.642857143,78.6832054 0.642857143,75.8240741 C0.642857143,72.9649428 25.1072,70.6481481 55.2857143,70.6481481 C85.4642286,70.6481481 109.928571,72.9649428 109.928571,75.8240741 L100.764153,75.6787539"/>
      <polygon fill="#7C7C7C" stroke="#49514F" stroke-linejoin="round" stroke-width="1.5" points="14.15 11.345 16.31 28.067 93.854 28.067 96.328 11.345"/>
      <path fill="#FFF" d="M98.2743213,73.9451133 L12.2955262,73.9221093 C11.3767148,73.9221093 10.6254852,73.340109 10.6208623,72.6223853 L10.3978049,29.3668795 C10.393182,28.6468554 11.1363213,28.0660053 12.0586,28.0660053 L98.0373951,28.0867088 C98.9573623,28.087859 99.7074361,28.6698593 99.7109033,29.3887333 L99.9351164,72.6453892 C99.9385836,73.363113 99.1954443,73.9451133 98.2743213,73.9451133"/>
      <g transform="rotate(-20 70.393 -33.32)">
        <polygon fill="#FFF" points=".149 .268 31.454 .328 38.42 2.838 38.507 19.794 .118 6.21"/>
        <path fill="#333841" d="M0,20.7035686 L38.661801,20.7035686 L38.661801,-3.26849658e-13 L0,-3.26849658e-13 L0,20.7035686 Z M0.522456771,0.517589215 L2.61228385,0.517589215 L2.61228385,2.58794607 L0.522456771,2.58794607 L0.522456771,0.517589215 Z M0.522456771,3.10553529 L2.61228385,3.10553529 L2.61228385,20.1859794 L0.522456771,20.1859794 L0.522456771,3.10553529 Z M24.5554682,6.52162411 L24.5554682,20.1859794 L3.13474062,20.1859794 L3.13474062,3.10553529 L24.5554682,3.10553529 L24.5554682,6.52162411 L24.5554682,6.52162411 Z M3.13474062,0.517589215 L24.5554682,0.517589215 L24.5554682,2.58794607 L3.13474062,2.58794607 L3.13474062,0.517589215 Z M37.6168875,13.9749088 L31.869863,20.1859794 L31.869863,13.9749088 L37.6168875,13.9749088 Z M32.3926387,20.1859794 L38.1396631,13.9749088 L38.1396631,20.1859794 L32.3926387,20.1859794 Z M31.869863,7.24624901 L38.1393443,7.24624901 L38.1393443,13.4573196 L31.869863,13.4573196 L31.869863,7.24624901 Z M31.869863,0.517589215 L38.1393443,0.517589215 L38.1393443,6.72865979 L31.869863,6.72865979 L31.869863,0.517589215 Z"/>
        <polygon fill="#18D6BF" points="25.078 .518 31.347 .518 31.347 6.729 25.078 6.729"/>
        <path fill="#C8C7C2" d="M25.077925,7.24624901 L31.3474062,7.24624901 L31.3474062,9.87640084 L31.3474062,13.4573196 L25.077925,13.4573196 L25.077925,7.24624901 Z"/>
        <polygon fill="#E8E8E5" points="25.078 13.975 31.347 13.975 31.347 20.186 25.078 20.186"/>
        <polygon fill="#333841" points="32.392 1.035 37.617 1.035 37.617 6.211 32.392 6.211"/>
        <polygon fill="#C8C7C2" points="32.392 7.764 37.617 7.764 37.617 12.94 32.392 12.94"/>
        <polygon fill="#333841" points="5.225 1.035 5.747 1.035 5.747 2.588 5.225 2.588"/>
        <polygon fill="#333841" points="7.314 1.035 7.837 1.035 7.837 2.588 7.314 2.588"/>
        <polygon fill="#333841" points="9.404 1.035 9.927 1.035 9.927 2.588 9.404 2.588"/>
        <polygon fill="#333841" points="11.494 1.035 12.017 1.035 12.017 2.588 11.494 2.588"/>
        <polygon fill="#333841" points="13.584 1.035 14.106 1.035 14.106 2.588 13.584 2.588"/>
        <polygon fill="#333841" points="15.674 1.035 16.196 1.035 16.196 2.588 15.674 2.588"/>
        <polygon fill="#333841" points="17.764 1.035 18.286 1.035 18.286 2.588 17.764 2.588"/>
        <polygon fill="#333841" points="19.853 1.035 20.376 1.035 20.376 2.588 19.853 2.588"/>
        <polygon fill="#333841" points="21.943 1.035 22.466 1.035 22.466 2.588 21.943 2.588"/>
        <polygon fill="#333841" points="1.045 5.176 2.612 5.176 2.612 5.693 1.045 5.693"/>
        <polygon fill="#333841" points="1.045 7.246 2.612 7.246 2.612 7.764 1.045 7.764"/>
        <polygon fill="#333841" points="1.045 9.317 2.612 9.317 2.612 9.834 1.045 9.834"/>
        <polygon fill="#333841" points="1.045 11.387 2.612 11.387 2.612 11.905 1.045 11.905"/>
        <polygon fill="#333841" points="1.045 13.457 2.612 13.457 2.612 13.975 1.045 13.975"/>
        <polygon fill="#333841" points="1.045 15.528 2.612 15.528 2.612 16.045 1.045 16.045"/>
        <polygon fill="#333841" points="1.045 15.528 2.612 15.528 2.612 16.045 1.045 16.045"/>
        <polygon fill="#333841" points="1.045 17.598 2.612 17.598 2.612 18.116 1.045 18.116"/>
      </g>
      <polygon fill="#FFF" points="57.634 17.314 59.944 15.836 69.326 27.829 89.552 27.829 93.285 18.947 76.626 11.832 59.944 11.6"/>
      <g transform="rotate(-157 46.859 9.102)">
        <path fill="#333841" d="M0,18.4031721 L33.9755221,18.4031721 L33.9755221,0 L0,0 L0,18.4031721 Z M0.459128677,0.460079302 L2.29564339,0.460079302 L2.29564339,2.30039651 L0.459128677,2.30039651 L0.459128677,0.460079302 Z M0.459128677,2.76047581 L2.29564339,2.76047581 L2.29564339,17.9430928 L0.459128677,17.9430928 L0.459128677,2.76047581 Z M21.5790478,5.79699921 L21.5790478,17.9430928 L2.75477206,17.9430928 L2.75477206,2.76047581 L21.5790478,2.76047581 L21.5790478,5.79699921 L21.5790478,5.79699921 Z M2.75477206,0.460079302 L21.5790478,0.460079302 L21.5790478,2.30039651 L2.75477206,2.30039651 L2.75477206,0.460079302 Z M33.0572648,12.4221412 L28.0068493,17.9430928 L28.0068493,12.4221412 L33.0572648,12.4221412 Z M28.4662582,17.9430928 L33.5166737,12.4221412 L33.5166737,17.9430928 L28.4662582,17.9430928 Z M28.0068493,6.44111023 L33.5163934,6.44111023 L33.5163934,11.9620619 L28.0068493,11.9620619 L28.0068493,6.44111023 Z M28.0068493,0.460079302 L33.5163934,0.460079302 L33.5163934,5.98103093 L28.0068493,5.98103093 L28.0068493,0.460079302 Z"/>
        <polygon fill="#18D6BF" points="22.038 .46 27.548 .46 27.548 5.981 22.038 5.981"/>
        <path fill="#C8C7C2" d="M22.0381765,6.44111023 L27.5477206,6.44111023 L27.5477206,8.77902297 L27.5477206,11.9620619 L22.0381765,11.9620619 L22.0381765,6.44111023 Z"/>
        <polygon fill="#E8E8E5" points="22.038 12.422 27.548 12.422 27.548 17.943 22.038 17.943"/>
        <polygon fill="#333841" points="28.466 .92 33.057 .92 33.057 5.521 28.466 5.521"/>
        <polygon fill="#C8C7C2" points="28.466 6.901 33.057 6.901 33.057 11.502 28.466 11.502"/>
        <polygon fill="#333841" points="4.591 .92 5.091 .92 5.091 2.3 4.591 2.3"/>
        <polygon fill="#333841" points="6.428 .92 6.928 .92 6.928 2.3 6.428 2.3"/>
        <polygon fill="#333841" points="8.264 .92 8.764 .92 8.764 2.3 8.264 2.3"/>
        <polygon fill="#333841" points="10.101 .92 10.601 .92 10.601 2.3 10.101 2.3"/>
        <polygon fill="#333841" points="11.937 .92 12.437 .92 12.437 2.3 11.937 2.3"/>
        <polygon fill="#333841" points="13.774 .92 14.274 .92 14.274 2.3 13.774 2.3"/>
        <polygon fill="#333841" points="15.61 .92 16.11 .92 16.11 2.3 15.61 2.3"/>
        <polygon fill="#333841" points="17.447 .92 17.947 .92 17.947 2.3 17.447 2.3"/>
        <polygon fill="#333841" points="19.283 .92 19.783 .92 19.783 2.3 19.283 2.3"/>
        <polygon fill="#333841" points=".918 4.601 2.296 4.601 2.296 5.101 .918 5.101"/>
        <polygon fill="#333841" points=".918 6.441 2.296 6.441 2.296 6.941 .918 6.941"/>
        <polygon fill="#333841" points=".918 8.281 2.296 8.281 2.296 8.781 .918 8.781"/>
        <polygon fill="#333841" points=".918 10.122 2.296 10.122 2.296 10.622 .918 10.622"/>
        <polygon fill="#333841" points=".918 11.962 2.296 11.962 2.296 12.462 .918 12.462"/>
        <polygon fill="#333841" points=".918 13.802 2.296 13.802 2.296 14.302 .918 14.302"/>
        <polygon fill="#333841" points=".918 13.802 2.296 13.802 2.296 14.302 .918 14.302"/>
        <polygon fill="#333841" points=".918 15.643 2.296 15.643 2.296 16.143 .918 16.143"/>
      </g>
      <g transform="scale(-1 1) rotate(39 -51.64 -76.844)">
        <polygon fill="#FFF" points=".149 .268 31.454 .328 38.42 2.838 38.507 19.794 .559 20.103"/>
        <path fill="#333841" d="M-2.7000624e-13,20.7035686 L38.661801,20.7035686 L38.661801,-3.26849658e-13 L-2.7000624e-13,-3.26849658e-13 L-2.7000624e-13,20.7035686 Z M0.522456771,0.517589215 L2.61228385,0.517589215 L2.61228385,2.58794607 L0.522456771,2.58794607 L0.522456771,0.517589215 Z M0.522456771,3.10553529 L2.61228385,3.10553529 L2.61228385,20.1859794 L0.522456771,20.1859794 L0.522456771,3.10553529 Z M24.5554682,6.52162411 L24.5554682,20.1859794 L3.13474062,20.1859794 L3.13474062,3.10553529 L24.5554682,3.10553529 L24.5554682,6.52162411 L24.5554682,6.52162411 Z M3.13474062,0.517589215 L24.5554682,0.517589215 L24.5554682,2.58794607 L3.13474062,2.58794607 L3.13474062,0.517589215 Z"/>
        <polygon fill="#18D6BF" points="25.078 .518 31.347 .518 31.347 6.729 25.078 6.729"/>
        <path fill="#C8C7C2" d="M25.077925,7.24624901 L31.3474062,7.24624901 L31.3474062,9.87640084 L31.3474062,13.4573196 L25.077925,13.4573196 L25.077925,7.24624901 Z"/>
        <polygon fill="#E8E8E5" points="25.078 13.975 31.347 13.975 31.347 20.186 25.078 20.186"/>
        <polygon fill="#333841" points="32.392 1.035 37.617 1.035 37.617 6.211 32.392 6.211"/>
        <polygon fill="#C8C7C2" points="32.392 7.764 37.617 7.764 37.617 12.94 32.392 12.94"/>
        <polygon fill="#333841" points="5.225 1.035 5.747 1.035 5.747 2.588 5.225 2.588"/>
        <polygon fill="#333841" points="7.314 1.035 7.837 1.035 7.837 2.588 7.314 2.588"/>
        <polygon fill="#333841" points="9.404 1.035 9.927 1.035 9.927 2.588 9.404 2.588"/>
        <polygon fill="#333841" points="11.494 1.035 12.017 1.035 12.017 2.588 11.494 2.588"/>
        <polygon fill="#333841" points="13.584 1.035 14.106 1.035 14.106 2.588 13.584 2.588"/>
        <polygon fill="#333841" points="15.674 1.035 16.196 1.035 16.196 2.588 15.674 2.588"/>
        <polygon fill="#333841" points="17.764 1.035 18.286 1.035 18.286 2.588 17.764 2.588"/>
        <polygon fill="#333841" points="19.853 1.035 20.376 1.035 20.376 2.588 19.853 2.588"/>
        <polygon fill="#333841" points="21.943 1.035 22.466 1.035 22.466 2.588 21.943 2.588"/>
        <polygon fill="#333841" points="1.045 5.176 2.612 5.176 2.612 5.693 1.045 5.693"/>
        <polygon fill="#333841" points="1.045 7.246 2.612 7.246 2.612 7.764 1.045 7.764"/>
        <polygon fill="#333841" points="1.045 9.317 2.612 9.317 2.612 9.834 1.045 9.834"/>
        <polygon fill="#333841" points="1.045 11.387 2.612 11.387 2.612 11.905 1.045 11.905"/>
        <polygon fill="#333841" points="1.045 13.457 2.612 13.457 2.612 13.975 1.045 13.975"/>
        <polygon fill="#333841" points="1.045 15.528 2.612 15.528 2.612 16.045 1.045 16.045"/>
        <polygon fill="#333841" points="1.045 15.528 2.612 15.528 2.612 16.045 1.045 16.045"/>
        <polygon fill="#333841" points="1.045 17.598 2.612 17.598 2.612 18.116 1.045 18.116"/>
      </g>
      <rect width="90" height="46" x="10" y="28" fill="#FFF"/>
      <path fill="#49514F" fill-rule="nonzero" d="M99.1851265,72.649294 L98.9599159,29.3923666 C98.9586629,29.1337232 98.5757707,28.83739 98.0287843,28.8367088 L11.668195,28.8160053 C11.1213455,28.8160053 10.7483591,29.106676 10.7500115,29.3629948 L10.9740542,72.6175331 C10.9757231,72.8754925 11.3598163,73.1721093 11.9063736,73.1721093 L98.2670329,73.1951133 C98.812192,73.1950812 99.1863598,72.9034758 99.1851265,72.649294 Z M98.2667431,74.6951132 L11.9061738,74.6721093 C10.6058177,74.6721093 9.48169898,73.8040062 9.47407995,72.62627 L9.25003714,29.3717162 C9.24240254,28.1878865 10.3611939,27.3160053 11.6683748,27.3160053 L98.0298977,27.3367094 C99.3316716,27.3383298 100.454191,28.2070856 100.459897,29.3848286 L100.685108,72.6417501 C100.690839,73.8230292 99.5717879,74.6951133 98.2669429,74.6951133 L98.2669429,73.9451133 L98.2667431,74.6951132 Z"/>
      <path fill="#EEE78C" d="M14.7974734,71.180227 C13.9335133,71.180227 13.0047338,70.3522116 13.0000127,69.7205666 L13.0000127,32.2180866 C12.9964719,31.5852805 13.7309822,30.7999644 14.5961226,30.7999644 L95.2378635,30.7999644 C96.1006434,30.8011255 96.9964354,31.5852805 96.9999762,32.2180866 L96.9999762,69.8695825 C97.0046973,70.5012276 96.3059754,71.1999659 95.4420153,71.1999659 L14.7974734,71.180227 Z"/>
      <path fill="#FFF" d="M17.255259,3.26128977 L14.1497918,10.990622 L96.0731033,10.990622 L92.5261443,3.26128977 C92.5261443,3.26128977 91.985259,1.30480254 88.7087426,1.69702014 L21.4829475,1.64526122 C21.4829475,1.64526122 18.1393984,1.0632609 17.255259,3.26128977"/>
      <path fill="#49514F" fill-rule="nonzero" d="M19.1802813,1.14604015 C20.009305,0.948116981 20.8439508,0.887642792 21.5004909,0.897409461 C21.5199059,0.89775116 44.0382529,0.915845895 89.0555317,0.951693663 C90.7207029,0.925285426 91.9330245,1.2824625 92.7452143,1.92404814 C93.2343323,2.31042471 93.4994932,2.72518999 93.6080037,3.06399095 L97.1525935,11.0408495 C97.3729779,11.5368097 97.0099338,12.0954045 96.4672131,12.0954045 L14.1497918,12.0954045 C13.6222254,12.0954045 13.2595432,11.56514 13.4508262,11.0734723 L16.5648506,3.069287 C16.9109892,2.05222972 17.8634893,1.46041432 19.1802813,1.14604015 Z M92.2178103,3.62936911 L92.1787242,3.51884592 C92.1637209,3.46282712 92.0648089,3.29811697 91.8154058,3.10110216 C91.2926564,2.68815865 90.417386,2.4302844 89.0668283,2.45159913 L21.4969897,2.39758936 C20.935575,2.38917175 20.2137011,2.44147507 19.5286057,2.60503643 C18.6575765,2.81298807 18.1178948,3.15018267 17.9822723,3.56029437 L17.9691641,3.59674631 L15.2463396,10.5954045 L95.3132316,10.5954045 L92.2178103,3.62936911 Z"/>
      <polygon fill="#EEE78C" points="90.029 4 92 9 18.068 9 19.583 4"/>
    </g>
    <path fill="#CCCBCB" d="M139.536483,2.16253577 L140.170474,2.06451936 C140.293419,2.00672934 140.433362,1.91041264 140.530812,1.79596574 C140.662822,1.64072588 140.687751,1.38010423 140.687751,1.38010423 L140.587468,0.729116654 C140.534778,0.385209381 140.772736,0.0605654476 141.116644,0.00730797855 C141.459984,-0.0453829216 141.785195,0.192575982 141.837886,0.536483256 L141.934202,1.16084209 C141.9512,1.19880221 142.048649,1.40390012 142.205589,1.50191652 C142.378392,1.61013117 142.617484,1.66452177 142.76196,1.65772295 L142.779523,1.66282207 L143.271305,1.58746842 C143.615212,1.53421095 143.939856,1.77216985 143.992547,2.11607712 C144.045804,2.4599844 143.807846,2.78462833 143.463938,2.8378858 L142.952893,2.91663887 C142.813517,2.95459898 142.603887,3.07697784 142.473009,3.23108456 C142.346665,3.37895902 142.318336,3.62031734 142.31607,3.64241352 L142.412953,4.27130491 C142.465644,4.61521218 142.227685,4.93985612 141.883778,4.99254702 C141.539871,5.04580449 141.215227,4.80784558 141.162536,4.46393831 L141.060553,3.79935309 C141.050922,3.77895661 140.951772,3.5574282 140.786901,3.45431267 C140.667355,3.37952559 140.517214,3.33250038 140.38747,3.31153733 L139.729117,3.41295315 C139.385209,3.46564405 139.060565,3.22768515 139.007308,2.88377787 C138.954617,2.5398706 139.192576,2.21522667 139.536483,2.16253577"/>
    <path fill="#49514F" d="M61.8153757,48.2073381 C61.3667094,46.4213289 59.554011,45.3371722 57.7680018,45.7858385 C55.9812713,46.2352261 54.8971146,48.0472032 55.3457809,49.8339337 C55.6739854,51.1388169 56.7321742,52.0621173 57.9743018,52.2929424 L58.8673064,55.8447636 C58.9264553,56.0820807 59.167379,56.2256251 59.4046961,56.1664761 L61.2332637,55.7069899 C61.4705807,55.6471196 61.6141251,55.4061959 61.5542548,55.1696002 L60.6619715,51.617779 C61.6473062,50.8264817 62.1435802,49.5129426 61.8153757,48.2073381" transform="rotate(15 58.58 50.932)"/>
  </g>
</svg>